<?xml version="1.0" encoding="utf-8"?>
<!-- Svg Vector Icons : http://www.onlinewebfonts.com/icon -->
<!DOCTYPE svg PUBLIC "-//W3C//DTD SVG 1.1//EN" "http://www.w3.org/Graphics/SVG/1.1/DTD/svg11.dtd">
<svg version="1.1" xmlns="http://www.w3.org/2000/svg" xmlns:xlink="http://www.w3.org/1999/xlink" x="0px" y="0px" viewBox="0 0 1000 1000" enable-background="new 0 0 1000 1000" xml:space="preserve">
<metadata> Svg Vector Icons : http://www.onlinewebfonts.com/icon </metadata>
<g><path d="M941.6,274.1h-620L269.8,73.6c-5.4-21.4-24.8-36.4-46.9-36.4H36c-17.8,0-29.1,14.1-25.3,31.6l7.6,33.8c3.8,17.5,21.4,31.6,39.3,31.6h127.9l157.2,609.4c5.6,21.4,24.8,36.3,46.9,36.3h464.3c17.8,0,32.3-14.4,32.3-32.2v-32.3c0-17.7-14.5-32.2-32.3-32.2H427.1L416,639.9h478.9l92.4-304C997.7,301.7,977.2,274.1,941.6,274.1z"/><path d="M294.3,887.4c0,41.6,33.7,75.3,75.3,75.3c41.6,0,75.3-33.7,75.3-75.3c0-41.6-33.7-75.3-75.3-75.3C328,812.1,294.3,845.8,294.3,887.4z"/><path d="M778.5,887.4c0,41.6,33.7,75.3,75.3,75.3s75.3-33.7,75.3-75.3c0-41.6-33.7-75.3-75.3-75.3S778.5,845.8,778.5,887.4z"/></g>
</svg>